# xmcd CD database file
#
# Track frame offsets:
#	150
#	16477
#	32562
#	60852
#	87647
#	96745
#	110085
#	125952
#	145015
#	171207
#
# Disc length: 2592 seconds
#
# Revision: 2
# Processed by: cddbd v1.5.2PL0 Copyright (c) Steve Scherf et al.
# Submitted via: CDex 1.51
#
DISCID=8e0a1e0a
DTITLE=Frank Zappa - Strictly Commercial - The Best Of Frank Zappa (Disc-1)
DYEAR=2002
DGENRE=Rock
TTITLE0=Peaches En Regalia
TTITLE1=Don't Eat The Yellow Snow (Single Version)
TTITLE2=Dancin' Fool (12" Dance Mix)
TTITLE3=San Ber'dino
TTITLE4=Let's Make The Water Turn Black
TTITLE5=Dirty Love
TTITLE6=My Guitar Wants To Kill Your Mama
TTITLE7=Cosmik Debris
TTITLE8=Trouble Every Day
TTITLE9=Disco Boy
EXTD=YEAR: 2002
EXTT0=
EXTT1=
EXTT2=
EXTT3=
EXTT4=
EXTT5=
EXTT6=
EXTT7=
EXTT8=
EXTT9=
PLAYORDER=
